<?xml version="1.0" encoding="UTF-8" standalone="no"?>
<!DOCTYPE svg PUBLIC "-//W3C//DTD SVG 1.1//EN" "http://www.w3.org/Graphics/SVG/1.1/DTD/svg11.dtd">
<svg width="100%" height="100%" viewBox="0 0 48 48" version="1.1" xmlns="http://www.w3.org/2000/svg" xmlns:xlink="http://www.w3.org/1999/xlink" xml:space="preserve" xmlns:serif="http://www.serif.com/" style="fill-rule:evenodd;clip-rule:evenodd;stroke-linejoin:round;stroke-miterlimit:2;">
    <rect x="0.027" y="0.018" width="48.053" height="47.938" style="fill:rgb(29,109,177);"/>
    <path d="M26.121,16.222L28.95,19.05C34.417,24.518 34.417,33.382 28.95,38.849L28.243,39.556C22.775,45.024 13.911,45.024 8.444,39.556C2.976,34.089 2.976,25.225 8.444,19.757L11.272,22.586C7.367,26.491 7.367,32.823 11.272,36.728C15.177,40.633 21.509,40.633 25.414,36.728L26.121,36.021C30.027,32.116 30.027,25.784 26.121,21.879L23.293,19.05L26.121,16.222ZM39.556,28.243L36.728,25.414C40.633,21.509 40.633,15.177 36.728,11.272C32.823,7.367 26.491,7.367 22.586,11.272L21.879,11.979C17.974,15.885 17.974,22.216 21.879,26.121L24.707,28.95L21.879,31.778L19.05,28.95C13.583,23.483 13.583,14.618 19.05,9.151L19.757,8.444C25.225,2.976 34.089,2.976 39.556,8.444C45.024,13.911 45.024,22.775 39.556,28.243Z" style="fill:white;fill-rule:nonzero;"/>
</svg>
